<svg id="Layer_1" data-name="Layer 1" xmlns="http://www.w3.org/2000/svg" width="587" height="360" viewBox="0 0 587 360"><defs><style>.cls-1,.cls-2,.cls-4,.cls-6{fill:none;stroke:#3a356d;stroke-linecap:round;stroke-linejoin:round;}.cls-1{stroke-width:3px;}.cls-2,.cls-4{stroke-width:1.5px;}.cls-2,.cls-3{opacity:0.25;}.cls-5{fill:#fff;opacity:0.8;}.cls-6{stroke-dasharray:4 3;}</style></defs><title>Dreams — All Illustrations</title><path class="cls-1" d="M226.78,115.11c4.68-1.89,12.84-2.07,18.23-.39l238.72,74c5.39,1.67,6,4.56,1.29,6.45L360.35,245.58c-4.68,1.89-12.84,2.06-18.23.39l-238.72-74c-5.39-1.67-6-4.56-1.29-6.45Z"/><path class="cls-1" d="M99,168.46l-.14,37c0,1.28,1.51,2.56,4.46,3.47L342,283c5.39,1.68,13.55,1.5,18.23-.39l124.67-50.37c2.12-.86,3.16-1.92,3.16-3l.14-37"/><path class="cls-2" d="M98.81,200.38c0,1.28,1.51,2.55,4.46,3.47l238.72,74c5.39,1.67,13.55,1.49,18.23-.4l124.67-50.37c2.12-.85,3.16-1.91,3.16-3"/><path class="cls-2" d="M98.81,173.58c0,1.28,1.51,2.56,4.46,3.48L342,251.1c5.39,1.67,13.55,1.49,18.23-.4l124.67-50.37c2.12-.85,3.16-1.92,3.16-3"/><g class="cls-3"><path class="cls-4" d="M347.67,226.16c3.17-1.2,8.77-2,15.16-2.13a53,53,0,0,1,14.54,1.49"/><path class="cls-4" d="M318,226.8c3.17-1.19,8.77-2,15.17-2.13a52.89,52.89,0,0,1,14.53,1.49"/><path class="cls-4" d="M377.37,225.52A26.78,26.78,0,0,0,375.25,215"/><path class="cls-4" d="M318,226.8a26.8,26.8,0,0,0-2.11-10.56"/><path class="cls-4" d="M349.79,236.72a26.78,26.78,0,0,0-2.12-10.56"/><path class="cls-4" d="M347.67,226.17a26.73,26.73,0,0,0-2.12-10.55"/><path class="cls-4" d="M345.55,215.62a26.78,26.78,0,0,0-2.12-10.56"/><path class="cls-4" d="M343.43,205.06a27,27,0,0,0-2.11-10.56"/><path class="cls-4" d="M341.31,194.5a26.84,26.84,0,0,0-2.11-10.56"/><path class="cls-4" d="M339.2,184a26.78,26.78,0,0,0-2.12-10.56"/><path class="cls-4" d="M337.08,173.4A26.78,26.78,0,0,0,335,162.84"/><path class="cls-4" d="M335,162.83a26.78,26.78,0,0,0-2.12-10.56"/><path class="cls-4" d="M375.25,215c3.16-1.2,8.77-2,15.16-2.13a52.89,52.89,0,0,1,14.53,1.49"/><path class="cls-4" d="M345.55,215.62c3.17-1.2,8.77-2.05,15.16-2.14A53,53,0,0,1,375.25,215"/><path class="cls-4" d="M286.16,216.9c3.17-1.2,8.77-2,15.16-2.13a53,53,0,0,1,14.54,1.49"/><path class="cls-4" d="M315.86,216.26c3.16-1.2,8.76-2,15.16-2.13a52.5,52.5,0,0,1,14.53,1.49"/><path class="cls-4" d="M404.94,214.33a26.92,26.92,0,0,0-2.11-10.55"/><path class="cls-4" d="M375.25,215a26.73,26.73,0,0,0-2.12-10.55"/><path class="cls-4" d="M315.86,216.25a26.82,26.82,0,0,0-2.12-10.56"/><path class="cls-4" d="M286.16,216.9A26.82,26.82,0,0,0,284,206.34"/><path class="cls-4" d="M402.82,203.78c3.17-1.2,8.77-2.05,15.17-2.13a52.5,52.5,0,0,1,14.53,1.49"/><path class="cls-4" d="M373.13,204.42c3.16-1.2,8.77-2,15.16-2.14a52.89,52.89,0,0,1,14.53,1.49"/><path class="cls-4" d="M343.43,205.06c3.17-1.2,8.77-2,15.16-2.13a52.53,52.53,0,0,1,14.54,1.49"/><path class="cls-4" d="M284,206.34c3.17-1.19,8.77-2,15.16-2.13a53,53,0,0,1,14.54,1.49"/><path class="cls-4" d="M313.74,205.7c3.16-1.2,8.77-2,15.16-2.13a52.89,52.89,0,0,1,14.53,1.49"/><path class="cls-4" d="M254.35,207c3.16-1.2,8.76-2.05,15.16-2.14A52.89,52.89,0,0,1,284,206.34"/><path class="cls-4" d="M432.52,203.13a26.73,26.73,0,0,0-2.12-10.55"/><path class="cls-4" d="M402.82,203.78a26.8,26.8,0,0,0-2.11-10.56"/><path class="cls-4" d="M373.13,204.42A26.78,26.78,0,0,0,371,193.86"/><path class="cls-4" d="M313.74,205.7a26.78,26.78,0,0,0-2.12-10.56"/><path class="cls-4" d="M284,206.34a26.73,26.73,0,0,0-2.12-10.55"/><path class="cls-4" d="M254.35,207a26.82,26.82,0,0,0-2.12-10.56"/><path class="cls-4" d="M430.4,192.58c3.17-1.2,8.77-2.05,15.16-2.14a52.92,52.92,0,0,1,14.54,1.49"/><path class="cls-4" d="M400.71,193.22c3.16-1.2,8.76-2,15.16-2.13a52.5,52.5,0,0,1,14.53,1.49"/><path class="cls-4" d="M371,193.86c3.17-1.2,8.77-2.05,15.16-2.13a52.58,52.58,0,0,1,14.54,1.49"/><path class="cls-4" d="M341.32,194.5c3.16-1.2,8.76-2,15.16-2.13A52.89,52.89,0,0,1,371,193.86"/><path class="cls-4" d="M281.92,195.79c3.17-1.2,8.77-2,15.17-2.14a52.89,52.89,0,0,1,14.53,1.49"/><path class="cls-4" d="M311.62,195.14c3.17-1.2,8.77-2,15.16-2.13a53,53,0,0,1,14.54,1.49"/><path class="cls-4" d="M252.23,196.43c3.16-1.2,8.77-2.05,15.16-2.13a52.5,52.5,0,0,1,14.53,1.49"/><path class="cls-4" d="M222.53,197.07c3.17-1.2,8.77-2,15.16-2.13a52.92,52.92,0,0,1,14.54,1.49"/><path class="cls-4" d="M430.4,192.58A26.74,26.74,0,0,0,428.28,182"/><path class="cls-4" d="M400.71,193.22a26.78,26.78,0,0,0-2.12-10.56"/><path class="cls-4" d="M371,193.86a26.78,26.78,0,0,0-2.12-10.56"/><path class="cls-4" d="M311.62,195.14a26.78,26.78,0,0,0-2.12-10.56"/><path class="cls-4" d="M281.92,195.79a26.94,26.94,0,0,0-2.11-10.56"/><path class="cls-4" d="M252.23,196.42a26.82,26.82,0,0,0-2.12-10.56"/><path class="cls-4" d="M222.53,197.07a26.73,26.73,0,0,0-2.12-10.55"/><path class="cls-4" d="M398.59,182.66c3.16-1.2,8.77-2,15.16-2.13A52.89,52.89,0,0,1,428.28,182"/><path class="cls-4" d="M368.89,183.3c3.17-1.2,8.77-2,15.16-2.13a52.92,52.92,0,0,1,14.54,1.49"/><path class="cls-4" d="M339.2,183.94c3.16-1.19,8.76-2,15.16-2.13a52.89,52.89,0,0,1,14.53,1.49"/><path class="cls-4" d="M279.8,185.23c3.17-1.2,8.77-2,15.17-2.13a52.5,52.5,0,0,1,14.53,1.49"/><path class="cls-4" d="M309.5,184.59c3.17-1.2,8.77-2.05,15.16-2.14a53,53,0,0,1,14.54,1.49"/><path class="cls-4" d="M250.11,185.87c3.16-1.2,8.77-2,15.16-2.13a52.89,52.89,0,0,1,14.53,1.49"/><path class="cls-4" d="M220.41,186.52c3.17-1.2,8.77-2.05,15.17-2.14a52.89,52.89,0,0,1,14.53,1.49"/><path class="cls-4" d="M190.72,187.16c3.16-1.2,8.77-2,15.16-2.14a52.89,52.89,0,0,1,14.53,1.49"/><path class="cls-4" d="M398.59,182.66a26.73,26.73,0,0,0-2.12-10.55"/><path class="cls-4" d="M368.89,183.3a26.82,26.82,0,0,0-2.12-10.56"/><path class="cls-4" d="M309.5,184.58A26.82,26.82,0,0,0,307.38,174"/><path class="cls-4" d="M279.8,185.23a26.8,26.8,0,0,0-2.11-10.56"/><path class="cls-4" d="M250.11,185.87A26.78,26.78,0,0,0,248,175.31"/><path class="cls-4" d="M220.41,186.52A27,27,0,0,0,218.3,176"/><path class="cls-4" d="M190.72,187.16a26.78,26.78,0,0,0-2.12-10.56"/><path class="cls-4" d="M366.77,172.76c3.17-1.2,8.77-2,15.17-2.14a52.89,52.89,0,0,1,14.53,1.49"/><path class="cls-4" d="M337.08,173.4c3.16-1.2,8.77-2,15.16-2.13a52.5,52.5,0,0,1,14.53,1.49"/><path class="cls-4" d="M277.69,174.68c3.16-1.19,8.77-2,15.16-2.13A52.89,52.89,0,0,1,307.38,174"/><path class="cls-4" d="M307.38,174c3.17-1.2,8.77-2,15.16-2.13a52.92,52.92,0,0,1,14.54,1.49"/><path class="cls-4" d="M248,175.33c3.17-1.2,8.77-2.05,15.16-2.14a53,53,0,0,1,14.54,1.49"/><path class="cls-4" d="M218.3,176c3.16-1.2,8.76-2,15.16-2.13A52.89,52.89,0,0,1,248,175.33"/><path class="cls-4" d="M188.6,176.61c3.17-1.2,8.77-2,15.16-2.13A53,53,0,0,1,218.3,176"/><path class="cls-4" d="M158.9,177.25c3.17-1.19,8.77-2,15.17-2.13a52.89,52.89,0,0,1,14.53,1.49"/><path class="cls-4" d="M366.77,172.76a26.8,26.8,0,0,0-2.11-10.56"/><path class="cls-4" d="M307.38,174a26.74,26.74,0,0,0-2.12-10.56"/><path class="cls-4" d="M277.69,174.68a26.73,26.73,0,0,0-2.12-10.55"/><path class="cls-4" d="M248,175.32a26.82,26.82,0,0,0-2.12-10.56"/><path class="cls-4" d="M218.3,176a26.82,26.82,0,0,0-2.12-10.56"/><path class="cls-4" d="M188.6,176.61a26.82,26.82,0,0,0-2.12-10.56"/><path class="cls-4" d="M335,162.84c3.17-1.2,8.77-2,15.16-2.13a53,53,0,0,1,14.54,1.49"/><path class="cls-4" d="M275.57,164.13c3.16-1.2,8.77-2,15.16-2.13a52.56,52.56,0,0,1,14.53,1.48"/><path class="cls-4" d="M305.26,163.48c3.17-1.19,8.77-2,15.17-2.13A52.89,52.89,0,0,1,335,162.84"/><path class="cls-4" d="M245.87,164.77c3.17-1.2,8.77-2,15.16-2.13a52.53,52.53,0,0,1,14.54,1.49"/><path class="cls-4" d="M216.18,165.42c3.16-1.2,8.76-2,15.16-2.14a52.89,52.89,0,0,1,14.53,1.49"/><path class="cls-4" d="M186.48,166.06c3.17-1.2,8.77-2.05,15.16-2.14a53,53,0,0,1,14.54,1.49"/><path class="cls-4" d="M156.79,166.7c3.16-1.2,8.76-2,15.16-2.13a52.56,52.56,0,0,1,14.53,1.48"/><path class="cls-4" d="M305.26,163.48a27,27,0,0,0-2.11-10.56"/><path class="cls-4" d="M275.57,164.13a26.78,26.78,0,0,0-2.12-10.56"/><path class="cls-4" d="M245.87,164.76a26.73,26.73,0,0,0-2.12-10.55"/><path class="cls-4" d="M216.18,165.42a26.74,26.74,0,0,0-2.12-10.56"/><path class="cls-4" d="M186.48,166.05a26.73,26.73,0,0,0-2.12-10.55"/><path class="cls-4" d="M158.9,177.25a26.92,26.92,0,0,0-2.11-10.55"/><path class="cls-4" d="M127.09,167.34c3.17-1.2,8.77-2,15.16-2.13a53,53,0,0,1,14.54,1.49"/><path class="cls-4" d="M156.79,166.7a26.78,26.78,0,0,0-2.12-10.56"/><path class="cls-4" d="M273.45,153.55c3.17-1.19,8.77-2,15.16-2.13a53,53,0,0,1,14.54,1.49"/><path class="cls-4" d="M303.15,152.91c3.16-1.2,8.76-2,15.16-2.13a52.89,52.89,0,0,1,14.53,1.49"/><path class="cls-4" d="M243.75,154.2c3.17-1.2,8.77-2,15.17-2.13a52.56,52.56,0,0,1,14.53,1.48"/><path class="cls-4" d="M214.06,154.84c3.16-1.2,8.77-2,15.16-2.13a52.89,52.89,0,0,1,14.53,1.49"/><path class="cls-4" d="M184.36,155.48c3.17-1.2,8.77-2,15.16-2.13a52.92,52.92,0,0,1,14.54,1.49"/><path class="cls-4" d="M154.67,156.12c3.16-1.19,8.77-2,15.16-2.13a52.89,52.89,0,0,1,14.53,1.49"/><path class="cls-4" d="M303.15,152.91A26.78,26.78,0,0,0,301,142.35"/><path class="cls-4" d="M273.45,153.55A26.73,26.73,0,0,0,271.33,143"/><path class="cls-4" d="M243.75,154.19a26.84,26.84,0,0,0-2.11-10.56"/><path class="cls-4" d="M214.06,154.84a26.82,26.82,0,0,0-2.12-10.56"/><path class="cls-4" d="M184.36,155.48a26.82,26.82,0,0,0-2.12-10.56"/><path class="cls-4" d="M271.33,143c3.17-1.2,8.77-2,15.16-2.13A52.58,52.58,0,0,1,301,142.36"/><path class="cls-4" d="M241.64,143.64c3.16-1.2,8.76-2,15.16-2.13A52.89,52.89,0,0,1,271.33,143"/><path class="cls-4" d="M211.94,144.29c3.17-1.2,8.77-2,15.16-2.14a53,53,0,0,1,14.54,1.49"/><path class="cls-4" d="M182.24,144.93c3.17-1.2,8.77-2.05,15.17-2.14a52.89,52.89,0,0,1,14.53,1.49"/><path class="cls-4" d="M271.33,143a26.78,26.78,0,0,0-2.12-10.56"/><path class="cls-4" d="M241.64,143.63a26.73,26.73,0,0,0-2.12-10.55"/><path class="cls-4" d="M211.94,144.29a26.78,26.78,0,0,0-2.12-10.56"/><path class="cls-4" d="M239.52,133.1c3.16-1.2,8.77-2,15.16-2.14a52.89,52.89,0,0,1,14.53,1.49"/><path class="cls-4" d="M209.82,133.74c3.17-1.2,8.77-2,15.16-2.13a53,53,0,0,1,14.54,1.49"/><path class="cls-4" d="M239.52,133.09a26.78,26.78,0,0,0-2.12-10.56"/></g><path class="cls-5" d="M205.47,146.08c5,.16,13.81-2.29,34.94-10.48,23.43-9.09,37.36-16.63,28.85-22.14a52.49,52.49,0,0,0-27.15-8.17c-8.31,0-33.78,6.52-62.19,22.19-2.91,1.61-6.47,5-6.47,6.51C173.45,137.3,181.92,145.31,205.47,146.08Z"/><path class="cls-6" d="M205.38,146.08c5,.16,13.81-2.29,34.94-10.48,23.43-9.09,37.36-16.63,28.85-22.14A52.49,52.49,0,0,0,242,105.29c-8.31,0-33.78,6.52-62.19,22.19-2.91,1.61-6.47,5-6.47,6.51C173.36,137.3,181.83,145.31,205.38,146.08Z"/><path class="cls-6" d="M175.73,133.81c2.87-1.24,10.12-.14,13.33.72.72.19,1.13.36,1.11.32.29.11.7.16,1.42.36,4.06,1.09,14.51,5.27,14.54,8.58"/><path class="cls-5" d="M135.29,174.16c5,.16,13.81-2.28,34.94-10.48,23.42-9.09,37.36-16.63,28.84-22.14a52.46,52.46,0,0,0-27.14-8.17c-8.31,0-33.78,6.52-62.2,22.19-2.9,1.61-6.47,5-6.47,6.51C103.26,165.38,111.74,173.39,135.29,174.16Z"/><path class="cls-6" d="M135.2,174.16c5,.16,13.81-2.28,34.94-10.48,23.43-9.09,37.36-16.63,28.84-22.14a52.46,52.46,0,0,0-27.14-8.17c-8.31,0-33.78,6.52-62.2,22.19-2.9,1.61-6.46,5-6.46,6.51C103.18,165.38,111.65,173.39,135.2,174.16Z"/><path class="cls-6" d="M105.55,161.89c2.87-1.24,10.11-.14,13.32.72.73.19,1.14.36,1.11.32.3.11.7.16,1.43.36,4.06,1.09,14.51,5.28,14.54,8.59"/><path class="cls-2" d="M310.81,252.63,284,244.46h0c-1-.32-1.88.45-1.89,1.74a3.1,3.1,0,0,0,1.87,2.9h0l26.85,8.17h0c1,.32,1.87-.46,1.88-1.74A3.1,3.1,0,0,0,310.81,252.63Z"/><path class="cls-2" d="M162.64,206.65l-26.83-8.16h0c-1-.33-1.87.45-1.88,1.74a3.1,3.1,0,0,0,1.87,2.9h0l26.84,8.17h0c1,.32,1.88-.46,1.89-1.74A3.11,3.11,0,0,0,162.64,206.65Z"/></svg>